<svg width="26" height="26" viewBox="0 0 26 26" fill="none" xmlns="http://www.w3.org/2000/svg">
<g clip-path="url(#clip0_622_1935)">
<path d="M24.3408 15.1478C25.7909 13.0149 26.3314 10.3953 25.8435 7.86519C25.3556 5.3351 23.8791 3.10182 21.739 1.65663C19.5989 0.211445 16.9703 -0.327263 14.4317 0.159019C11.893 0.6453 9.65211 2.11674 8.20201 4.24963C7.1995 5.75719 6.61624 7.50283 6.51174 9.30841C5.42669 9.54907 4.40112 10.0043 3.49576 10.6471C2.5904 11.2898 1.82367 12.1071 1.24095 13.0506C0.65824 13.994 0.271396 15.0443 0.10333 16.1394C-0.0647364 17.2345 -0.0106087 18.3521 0.262508 19.426C0.492697 20.3946 0.888959 21.3164 1.43384 22.1507L0.262508 24.8741C0.133578 25.2634 0.262508 25.5224 0.653166 25.7819C0.725292 25.8447 0.817823 25.8793 0.913604 25.8793C1.00938 25.8793 1.10192 25.8447 1.17404 25.7819L3.90736 24.6145C4.83797 25.2219 5.8798 25.64 6.97303 25.8449C8.06626 26.0498 9.18933 26.0374 10.2777 25.8085C11.3661 25.5795 12.3984 25.1385 13.3153 24.5108C14.2322 23.8831 15.0157 23.081 15.6206 22.1507C16.1425 21.3046 16.5371 20.3868 16.792 19.4266C18.5448 19.3257 20.2447 18.7906 21.7377 17.8699L24.9913 19.2968C25.1222 19.3392 25.2614 19.3497 25.3973 19.3273C25.5331 19.305 25.6616 19.2504 25.7719 19.1684C26.0298 19.0399 26.0298 18.6492 25.9009 18.3903L24.3408 15.1478ZM8.4618 24.6145C6.96624 24.6637 5.49808 24.2065 4.29672 23.3174C4.20071 23.2526 4.08744 23.218 3.9715 23.218C3.85556 23.218 3.74228 23.2526 3.64627 23.3174L2.08429 23.9657L2.73538 22.5362C2.78405 22.4281 2.79779 22.3077 2.77469 22.1915C2.75159 22.0754 2.69279 21.9693 2.60645 21.8879C1.4839 20.3689 1.00481 18.4713 1.27236 16.6037C1.53991 14.7361 2.53269 13.0479 4.03693 11.9027C5.55576 10.7675 7.46488 10.28 9.34432 10.5476C11.2238 10.8152 12.9196 11.8159 14.0586 13.3296C15.1977 14.8433 15.6868 16.746 15.4183 18.619C15.1498 20.4921 14.1457 22.1822 12.6269 23.3174C11.3976 24.1505 9.94827 24.6018 8.4618 24.6145ZM21.8705 16.4424C21.6126 16.3139 21.3496 16.3139 21.2201 16.5709C19.955 17.4657 18.471 18.0035 16.9248 18.1276V17.48C16.9267 16.3719 16.7091 15.2745 16.2845 14.2505C15.8598 13.2265 15.2365 12.2961 14.4502 11.5128C13.6639 10.7295 12.7301 10.1086 11.7025 9.68575C10.6749 9.26292 9.57357 9.04649 8.4618 9.04886H7.81135C7.98395 6.81271 9.0408 4.73647 10.7494 3.27691C12.458 1.81734 14.6784 1.094 16.9222 1.26601C19.1659 1.43802 21.2492 2.4913 22.7137 4.19413C24.1783 5.89695 24.9041 8.10985 24.7315 10.346C24.621 11.9514 24.0317 13.4872 23.0393 14.7565C22.9216 14.951 22.876 15.1803 22.9103 15.4048L23.8212 17.3502L21.8705 16.4424Z" fill="white"/>
</g>
<defs>
<clipPath id="clip0_622_1935">
<rect width="26" height="26" fill="white"/>
</clipPath>
</defs>
</svg>
