<svg width="15" height="15" viewBox="0 0 15 15" fill="none" xmlns="http://www.w3.org/2000/svg">
<g clip-path="url(#clip0_622_1831)">
<path d="M14.4722 5.81967C14.405 5.61107 14.2814 5.42515 14.115 5.28248C13.9486 5.13981 13.746 5.04596 13.5296 5.01131L10.1339 4.45945L8.55969 1.40044C8.45942 1.2057 8.30744 1.04234 8.12043 0.928292C7.93343 0.814242 7.71862 0.753906 7.49958 0.753906C7.28054 0.753906 7.06573 0.814242 6.87873 0.928292C6.69172 1.04234 6.53974 1.2057 6.43947 1.40044L4.86529 4.45945L1.46958 5.01131C1.25339 5.0465 1.05107 5.14056 0.884814 5.28316C0.718561 5.42577 0.594801 5.61141 0.527113 5.81973C0.459425 6.02804 0.450425 6.25098 0.5011 6.46407C0.551776 6.67717 0.660168 6.87218 0.814384 7.02773L3.23724 9.47015L2.71282 12.8702C2.67917 13.0868 2.7059 13.3084 2.79006 13.5108C2.87423 13.7131 3.01257 13.8883 3.18987 14.0171C3.36717 14.146 3.57656 14.2234 3.79502 14.2409C4.01348 14.2584 4.23253 14.2154 4.4281 14.1164L7.49958 12.5669L10.5712 14.1164C10.7667 14.2151 10.9857 14.2581 11.2041 14.2405C11.4225 14.2229 11.6318 14.1454 11.809 14.0166C11.9863 13.8879 12.1246 13.7127 12.2088 13.5105C12.293 13.3083 12.3199 13.0867 12.2864 12.8702L11.762 9.47015L14.1849 7.02773C14.3396 6.87249 14.4483 6.67746 14.499 6.46425C14.5497 6.25103 14.5405 6.02794 14.4722 5.81967ZM13.5192 6.36752L10.7633 9.14572L11.3599 13.0132C11.3672 13.0595 11.3617 13.107 11.3438 13.1503C11.3258 13.1937 11.2963 13.2312 11.2583 13.2588C11.2204 13.2863 11.1755 13.3029 11.1288 13.3065C11.082 13.3102 11.0351 13.3008 10.9934 13.2794L7.49958 11.5169L4.00575 13.2795C3.96399 13.3009 3.91713 13.3102 3.87037 13.3066C3.8236 13.3029 3.77877 13.2864 3.74082 13.2588C3.70287 13.2313 3.6733 13.1937 3.65538 13.1504C3.63745 13.107 3.63188 13.0596 3.63928 13.0133L4.23591 9.14572L1.47998 6.36749C1.44707 6.33424 1.42394 6.29258 1.41314 6.24706C1.40233 6.20154 1.40426 6.15392 1.41872 6.10943C1.43318 6.06494 1.4596 6.02528 1.4951 5.9948C1.53059 5.96433 1.57379 5.94421 1.61996 5.93665L5.48249 5.30894L7.27309 1.82944C7.2945 1.78782 7.32696 1.7529 7.36692 1.72852C7.40687 1.70414 7.45277 1.69125 7.49958 1.69125C7.54639 1.69125 7.59229 1.70414 7.63224 1.72852C7.6722 1.7529 7.70466 1.78782 7.72607 1.82944L9.51667 5.30894L13.3792 5.93665C13.4254 5.94421 13.4686 5.96433 13.5041 5.9948C13.5396 6.02528 13.566 6.06494 13.5804 6.10943C13.5949 6.15392 13.5968 6.20154 13.586 6.24706C13.5752 6.29258 13.5521 6.33424 13.5192 6.36749L13.5192 6.36752Z" fill="#9DBC78"/>
</g>
<defs>
<clipPath id="clip0_622_1831">
<rect width="15" height="15" fill="white"/>
</clipPath>
</defs>
</svg>
