<svg width="58" height="58" viewBox="0 0 58 58" fill="none" xmlns="http://www.w3.org/2000/svg">
<g filter="url(#filter0_d_622_1875)">
<path d="M4 5C4 2.23858 6.23858 0 9 0H49C51.7614 0 54 2.23858 54 5V49C54 49.5523 53.5523 50 53 50H9C6.23858 50 4 47.7614 4 45V5Z" fill="#9DBC78" shape-rendering="crispEdges"/>
<path d="M24.5 19.5C24.5 21.981 26.519 24 29 24C31.481 24 33.5 21.981 33.5 19.5C33.5 17.019 31.481 15 29 15C26.519 15 24.5 17.019 24.5 19.5ZM37 34H38V33C38 29.141 34.859 26 31 26H27C23.14 26 20 29.141 20 33V34H37Z" fill="white"/>
</g>
<defs>
<filter id="filter0_d_622_1875" x="0" y="0" width="58" height="58" filterUnits="userSpaceOnUse" color-interpolation-filters="sRGB">
<feFlood flood-opacity="0" result="BackgroundImageFix"/>
<feColorMatrix in="SourceAlpha" type="matrix" values="0 0 0 0 0 0 0 0 0 0 0 0 0 0 0 0 0 0 127 0" result="hardAlpha"/>
<feOffset dy="4"/>
<feGaussianBlur stdDeviation="2"/>
<feComposite in2="hardAlpha" operator="out"/>
<feColorMatrix type="matrix" values="0 0 0 0 0 0 0 0 0 0 0 0 0 0 0 0 0 0 0.25 0"/>
<feBlend mode="normal" in2="BackgroundImageFix" result="effect1_dropShadow_622_1875"/>
<feBlend mode="normal" in="SourceGraphic" in2="effect1_dropShadow_622_1875" result="shape"/>
</filter>
</defs>
</svg>
