<svg width="162" height="114" viewBox="0 0 162 114" fill="none" xmlns="http://www.w3.org/2000/svg">
<g clip-path="url(#clip0_657_699)">
<path d="M80.2055 0.702878C74.6055 4.60288 55.3055 16.9029 33.8055 17.9029C33.4504 17.9142 33.101 17.9958 32.7776 18.143C32.4542 18.2902 32.1632 18.5001 31.9214 18.7605C31.6796 19.0208 31.4918 19.3266 31.369 19.66C31.2461 19.9934 31.1905 20.3479 31.2055 20.7029C32.1055 79.4029 71.6055 107.803 79.9055 113.103C80.3507 113.396 80.8723 113.553 81.4055 113.553C81.9388 113.553 82.4603 113.396 82.9055 113.103C91.1055 107.803 130.306 79.4029 131.506 20.7029C131.517 19.9909 131.253 19.302 130.768 18.7802C130.284 18.2584 129.616 17.9441 128.906 17.9029C107.306 16.9029 88.8055 4.70288 83.4055 0.702878C82.9418 0.361735 82.3812 0.177734 81.8055 0.177734C81.2298 0.177734 80.6692 0.361735 80.2055 0.702878Z" fill="#E6E6E6"/>
<path d="M96.7062 39.9004H65.4062V69.4004H96.7062V39.9004Z" fill="white"/>
<path d="M51.7031 81.0012H25.7031C19.0734 80.9988 12.716 78.3641 8.02809 73.6762C3.3402 68.9883 0.70551 62.6309 0.703125 56.0012V52.7012C0.70551 46.0715 3.3402 39.714 8.02809 35.0261C12.716 30.3382 19.0734 27.7036 25.7031 27.7012H51.8031C58.4328 27.7036 64.7903 30.3382 69.4782 35.0261C74.166 39.714 76.8007 46.0715 76.8031 52.7012V56.0012C76.7991 59.2915 76.1463 62.5487 74.8823 65.5866C73.6182 68.6244 71.7676 71.3832 69.4364 73.7051C67.1051 76.0271 64.339 77.8667 61.2961 79.1186C58.2533 80.3705 54.9934 81.0102 51.7031 81.0012Z" fill="white"/>
<path d="M136.305 81.0012H110.305C103.675 80.9988 97.3175 78.3641 92.6297 73.6762C87.9418 68.9883 85.3071 62.6309 85.3047 56.0012V52.7012C85.3071 46.0715 87.9418 39.714 92.6297 35.0261C97.3175 30.3382 103.675 27.7036 110.305 27.7012H136.305C142.934 27.7036 149.292 30.3382 153.98 35.0261C158.668 39.714 161.302 46.0715 161.305 52.7012V56.0012C161.32 59.2886 160.684 62.5465 159.434 65.5867C158.183 68.6269 156.342 71.3891 154.017 73.7137C151.693 76.0383 148.93 77.8792 145.89 79.13C142.85 80.3808 139.592 81.0168 136.305 81.0012Z" fill="white"/>
<path d="M50.2031 69.9004H27.9031C24.0064 69.894 20.2711 68.3433 17.5157 65.5878C14.7603 62.8324 13.2095 59.0971 13.2031 55.2004V53.6004C13.2095 49.7037 14.7603 45.9683 17.5157 43.2129C20.2711 40.4575 24.0064 38.9067 27.9031 38.9004H50.2031C54.0999 38.9067 57.8352 40.4575 60.5906 43.2129C63.346 45.9683 64.8968 49.7037 64.9031 53.6004V55.2004C64.8968 59.0971 63.346 62.8324 60.5906 65.5878C57.8352 68.3433 54.0999 69.894 50.2031 69.9004V69.9004Z" stroke="#9DBC78" stroke-width="7"/>
<path d="M134.805 69.9004H112.505C108.608 69.894 104.873 68.3433 102.117 65.5878C99.3618 62.8324 97.811 59.0971 97.8047 55.2004V53.6004C97.811 49.7037 99.3618 45.9683 102.117 43.2129C104.873 40.4575 108.608 38.9067 112.505 38.9004H134.805C138.701 38.9067 142.437 40.4575 145.192 43.2129C147.948 45.9683 149.498 49.7037 149.505 53.6004V55.2004C149.518 57.1345 149.147 59.052 148.413 60.8415C147.679 62.631 146.596 64.2568 145.229 65.6245C143.861 66.9922 142.235 68.0745 140.446 68.8085C138.656 69.5425 136.739 69.9137 134.805 69.9004Z" stroke="#9DBC78" stroke-width="7"/>
<path d="M118.005 45.002H87.3047V63.702H118.005V45.002Z" fill="white"/>
<path d="M76.7 45.002H46V63.702H76.7V45.002Z" fill="white"/>
<path d="M50.7031 54.5996H111.303" stroke="#9DBC78" stroke-width="7" stroke-linecap="round"/>
<path d="M93.1861 54.3052L80.9531 42.0723L68.7202 54.3052L80.9531 66.5382L93.1861 54.3052Z" fill="white"/>
<path d="M71.4062 29.4004L76.5062 37.4004" stroke="#9DBC78" stroke-width="3" stroke-linecap="round"/>
<path d="M90.7016 29.4004L85.6016 37.4004" stroke="#9DBC78" stroke-width="3" stroke-linecap="round"/>
<path d="M81.0047 51.0012L76.8047 46.7012H85.2047L81.0047 51.0012Z" fill="#9DBC78"/>
<path d="M81.0047 58.7012L76.8047 63.0012H85.2047L81.0047 58.7012Z" fill="#9DBC78"/>
<path d="M90.7016 79.9004L85.6016 71.9004" stroke="#9DBC78" stroke-width="3" stroke-linecap="round"/>
<path d="M71.4062 79.9004L76.5062 71.9004" stroke="#9DBC78" stroke-width="3" stroke-linecap="round"/>
</g>
<defs>
<clipPath id="clip0_657_699">
<rect width="160.601" height="113.375" fill="white" transform="translate(0.703125 0.177734)"/>
</clipPath>
</defs>
</svg>
