<svg width="124" height="114" viewBox="0 0 124 114" fill="none" xmlns="http://www.w3.org/2000/svg">
<path d="M57.225 42.3711C51.625 52.0711 44.325 74.3711 39.625 107.271C43.625 110.271 51.325 110.371 56.425 108.171C56.625 103.371 57.625 65.1711 68.825 42.3711" stroke="#9DBC78" stroke-width="7" stroke-linecap="round" stroke-linejoin="round"/>
<path d="M67.4241 26.9688C64.6241 29.1688 72.2241 49.8688 72.2241 49.8688L79.2241 49.4688L76.0241 57.3688C76.0241 57.3688 75.8241 59.6688 79.4241 64.4688C81.4241 64.1688 85.4241 63.2687 85.4241 63.2687L83.9241 70.7687C83.9241 70.7687 89.0241 79.8688 96.9241 83.6688C99.8241 84.9688 95.8241 55.6687 91.1241 45.4688C86.4241 35.2688 82.4241 26.9688 67.4241 26.9688Z" stroke="#9DBC78" stroke-width="7" stroke-linecap="round" stroke-linejoin="round"/>
<path d="M65.922 30.7691C65.322 41.0691 48.622 46.4691 48.622 46.4691L43.322 39.6691L40.422 47.5691C37.9517 48.4298 35.3302 48.7703 32.722 48.5691C31.4139 46.152 30.2778 43.6458 29.322 41.0691L24.522 48.2691C24.522 48.2691 9.62199 50.9691 4.22199 49.8691C1.62199 48.0691 23.122 27.5691 45.422 23.3691C54.722 21.6691 61.822 22.6691 65.922 30.7691Z" stroke="#9DBC78" stroke-width="7" stroke-linecap="round" stroke-linejoin="round"/>
<path d="M45.5203 23.3695C40.4203 19.9695 19.3203 6.06948 19.3203 6.06948C19.3203 6.06948 38.6203 1.26948 51.9203 5.66948C65.2203 10.0695 66.8203 24.2695 66.8203 24.2695" stroke="#9DBC78" stroke-width="7" stroke-linecap="round" stroke-linejoin="round"/>
<path d="M68.8203 24.268C71.6203 19.568 78.5203 8.86805 87.2203 7.26805C100.02 4.96805 114.02 13.168 119.92 18.868C121.92 20.768 103.92 17.968 89.1203 23.468" stroke="#9DBC78" stroke-width="7" stroke-linecap="round" stroke-linejoin="round"/>
<path d="M67.4219 26.9709C71.3219 25.8709 83.2219 20.3709 92.4219 25.9709C102.022 31.7709 110.022 39.9709 117.322 53.4709C118.322 55.2709 95.4219 49.9709 92.4219 48.7709" stroke="#9DBC78" stroke-width="7" stroke-linecap="round" stroke-linejoin="round"/>
<path d="M70.9219 109.968C73.6219 109.168 77.9219 104.668 82.3219 104.668C87.2219 104.668 89.1219 109.968 95.0219 109.968C100.422 109.968 102.822 104.668 108.022 104.668C112.822 104.668 115.222 108.568 119.422 109.968" stroke="#E6E6E6" stroke-width="6.45" stroke-linecap="round" stroke-linejoin="round"/>
<path d="M70.9219 97.0695C73.6219 96.2695 77.3219 91.7695 83.0219 91.7695C88.7219 91.7695 90.5219 97.0695 95.0219 97.0695C99.5219 97.0695 101.822 91.7695 108.022 91.7695C114.222 91.7695 115.022 95.7695 119.422 97.0695" stroke="#E6E6E6" stroke-width="6.45" stroke-linecap="round" stroke-linejoin="round"/>
</svg>
