<svg width="154" height="121" viewBox="0 0 154 121" fill="none" xmlns="http://www.w3.org/2000/svg">
<g clip-path="url(#clip0_657_1076)">
<path d="M47.4357 70.7344H49.9987C56.106 70.7342 62.1536 71.9371 67.7961 74.2741C73.4386 76.6112 78.5655 80.0368 82.884 84.3553C87.2026 88.6738 90.6283 93.8006 92.9655 99.4431C95.3027 105.086 96.5057 111.133 96.5057 117.24V120.352H0.929688V117.24C0.929688 104.906 5.82941 93.0772 14.551 84.3557C23.2725 75.6341 35.1015 70.7344 47.4357 70.7344V70.7344Z" fill="#E6E6E6"/>
<path d="M45.4684 63.14C60.9711 63.14 73.5384 50.5726 73.5384 35.07C73.5384 19.5674 60.9711 7 45.4684 7C29.9658 7 17.3984 19.5674 17.3984 35.07C17.3984 50.5726 29.9658 63.14 45.4684 63.14Z" fill="#E6E6E6"/>
<path d="M45.4684 66.64C62.9041 66.64 77.0384 52.5056 77.0384 35.07C77.0384 17.6344 62.9041 3.5 45.4684 3.5C28.0328 3.5 13.8984 17.6344 13.8984 35.07C13.8984 52.5056 28.0328 66.64 45.4684 66.64Z" stroke="white" stroke-width="7"/>
<path d="M137.13 16.6875H69.4047C60.6035 16.6875 53.4688 23.8223 53.4688 32.6235V79.7315C53.4688 88.5327 60.6035 95.6675 69.4047 95.6675H137.13C145.931 95.6675 153.066 88.5327 153.066 79.7315V32.6235C153.066 23.8223 145.931 16.6875 137.13 16.6875Z" fill="white"/>
<path d="M123.141 0.691406H83.3947C78.9267 0.691406 75.3047 4.31342 75.3047 8.78141V38.9294C75.3047 43.3974 78.9267 47.0194 83.3947 47.0194H123.141C127.609 47.0194 131.231 43.3974 131.231 38.9294V8.78141C131.231 4.31342 127.609 0.691406 123.141 0.691406Z" fill="white"/>
<path d="M132.46 28.7656H74.0809C69.6654 28.7656 66.0859 32.3451 66.0859 36.7606V75.6426C66.0859 80.0581 69.6654 83.6376 74.0809 83.6376H132.46C136.875 83.6376 140.455 80.0581 140.455 75.6426V36.7606C140.455 32.3451 136.875 28.7656 132.46 28.7656Z" stroke="#9DBC78" stroke-width="7" stroke-linecap="round" stroke-linejoin="round"/>
<path d="M120.547 10.6562H85.9922V28.7642H120.547V10.6562Z" stroke="#9DBC78" stroke-width="7" stroke-linecap="round" stroke-linejoin="round"/>
<path d="M103.266 46.7305V65.4375" stroke="#9DBC78" stroke-width="7" stroke-linecap="round" stroke-linejoin="round"/>
<path d="M112.621 56.082H93.9141" stroke="#9DBC78" stroke-width="7" stroke-linecap="round" stroke-linejoin="round"/>
</g>
<defs>
<clipPath id="clip0_657_1076">
<rect width="152.135" height="120.355" fill="white" transform="translate(0.929688)"/>
</clipPath>
</defs>
</svg>
