<svg width="136" height="113" viewBox="0 0 136 113" fill="none" xmlns="http://www.w3.org/2000/svg">
<g clip-path="url(#clip0_657_1752)">
<path d="M131.74 25.7207H4.26562V108.586H131.74V25.7207Z" stroke="#9DBC78" stroke-width="7" stroke-linecap="round" stroke-linejoin="round"/>
<path d="M90.5007 25.7185V3.77148H45.7188V25.7195" stroke="#9DBC78" stroke-width="7" stroke-linecap="round" stroke-linejoin="round"/>
<path d="M45.0026 70.9237H19.8026C17.7624 70.9239 15.742 70.5223 13.857 69.7417C11.972 68.9611 10.2592 67.8169 8.81642 66.3743C7.37365 64.9317 6.22918 63.219 5.44835 61.3341C4.66752 59.4492 4.26562 57.4289 4.26562 55.3887V55.3887" stroke="#9DBC78" stroke-width="7" stroke-linecap="round" stroke-linejoin="round"/>
<path d="M131.738 55.3887C131.738 57.4288 131.337 59.4489 130.556 61.3336C129.775 63.2184 128.631 64.931 127.188 66.3736C125.746 67.8161 124.033 68.9604 122.148 69.7411C120.264 70.5219 118.244 70.9237 116.203 70.9237H91.7734" stroke="#9DBC78" stroke-width="7" stroke-linecap="round" stroke-linejoin="round"/>
<path d="M40.4581 64.2805L47.1001 70.9225L38.7891 79.2335L44.2531 83.6335L52.2341 80.2805L55.8641 71.3575L52.9271 63.7365L47.1351 61.1035H43.3351L40.4581 64.2805Z" fill="white"/>
<path d="M95.9138 64.2805L89.2718 70.9225L97.5828 79.2335L92.1188 83.6335L84.1378 80.2805L80.5078 71.3575L83.4448 63.7365L89.2368 61.1035H93.0368L95.9138 64.2805Z" fill="white"/>
<path d="M67.9453 85.6067L53.8954 71.5566L47.8843 77.5667C46.2725 79.1819 45.3672 81.3707 45.3672 83.6526C45.3672 85.9346 46.2725 88.1234 47.8843 89.7386L49.7723 91.6256C50.5709 92.4243 51.5191 93.0579 52.5625 93.4902C53.606 93.9224 54.7244 94.1449 55.8539 94.1449C56.9833 94.1449 58.1017 93.9224 59.1452 93.4902C60.1886 93.0579 61.1367 92.4243 61.9353 91.6256L67.9453 85.6067Z" fill="#E6E6E6"/>
<path d="M82.9482 71.2373L68.2653 56.5553L61.9352 50.2243C61.1366 49.4256 60.1886 48.7921 59.1451 48.3598C58.1016 47.9275 56.9832 47.7051 55.8538 47.7051C54.7243 47.7051 53.6059 47.9275 52.5624 48.3598C51.519 48.7921 50.5708 49.4256 49.7722 50.2243L47.8842 52.1123C46.2724 53.7275 45.3672 55.916 45.3672 58.1978C45.3672 60.4796 46.2724 62.6682 47.8842 64.2833L54.2152 70.6143L68.8983 85.2973L75.2282 91.6273C76.0268 92.426 76.975 93.0596 78.0184 93.4919C79.0619 93.9241 80.1803 94.1466 81.3098 94.1466C82.4392 94.1466 83.5576 93.9241 84.6011 93.4919C85.6445 93.0596 86.5927 92.426 87.3913 91.6273L89.2793 89.7403C90.8914 88.1252 91.7968 85.9364 91.7968 83.6543C91.7968 81.3723 90.8914 79.1835 89.2793 77.5683L82.9482 71.2373ZM80.4193 73.7373L71.3913 82.7663C71.3084 82.8493 71.1965 82.897 71.0793 82.8993C71.021 82.9002 70.9632 82.8889 70.9096 82.8659C70.856 82.843 70.8078 82.8091 70.7682 82.7663L68.2682 80.2663L59.2393 71.2373L56.7393 68.7373C56.697 68.6962 56.6635 68.6471 56.6406 68.5928C56.6177 68.5386 56.6059 68.4802 56.6059 68.4213C56.6059 68.3624 56.6177 68.3041 56.6406 68.2498C56.6635 68.1955 56.697 68.1464 56.7393 68.1053L65.7672 59.0853C65.8503 59.0025 65.962 58.9549 66.0793 58.9523C66.1377 58.9514 66.1956 58.9628 66.2494 58.9857C66.3031 59.0086 66.3515 59.0425 66.3913 59.0853L68.8913 61.5853L77.9193 70.6143L80.4193 73.1143C80.5016 73.1975 80.5479 73.3098 80.5479 73.4268C80.5479 73.5439 80.5016 73.6562 80.4193 73.7393V73.7373Z" fill="#E6E6E6"/>
<path d="M87.3918 50.2322C86.5932 49.4335 85.645 48.7999 84.6016 48.3676C83.5581 47.9354 82.4397 47.7129 81.3102 47.7129C80.1808 47.7129 79.0624 47.9354 78.0189 48.3676C76.9755 48.7999 76.0273 49.4335 75.2287 50.2322L69.2188 56.2422L83.2697 70.2922L89.2798 64.2822C90.8921 62.6673 91.7976 60.4786 91.7976 58.1967C91.7976 55.9147 90.8921 53.726 89.2798 52.1112L87.3918 50.2322Z" fill="#E6E6E6"/>
</g>
<defs>
<clipPath id="clip0_657_1752">
<rect width="134.474" height="111.812" fill="white" transform="translate(0.765625 0.271484)"/>
</clipPath>
</defs>
</svg>
