<svg width="269" height="184" viewBox="0 0 269 184" fill="none" xmlns="http://www.w3.org/2000/svg">
<g clip-path="url(#clip0_622_1871)">
<g opacity="0.5">
<path d="M15.567 0C11.4451 0.0218032 7.49823 1.66889 4.58356 4.58356C1.66889 7.49823 0.0218032 11.4451 0 15.567V167.7C0.0184164 171.832 1.66143 175.79 4.57414 178.721C7.48685 181.651 11.4354 183.318 15.567 183.362H253.367C257.498 183.318 261.447 181.651 264.359 178.721C267.272 175.79 268.915 171.832 268.933 167.7V15.567C268.911 11.4451 267.264 7.49823 264.349 4.58356C261.435 1.66889 257.488 0.0218032 253.366 0H15.567ZM22.061 12.224H246.872L134.466 102.951L22.061 12.224ZM12.224 19.96L101.041 91.682L12.224 163.308V19.96ZM256.709 19.96V163.308L167.892 91.682L256.709 19.96ZM110.687 99.513L130.647 115.557C131.731 116.425 133.078 116.898 134.467 116.898C135.856 116.898 137.203 116.425 138.287 115.557L158.247 99.513L246.873 171.139H22.061L110.687 99.513Z" fill="white"/>
</g>
</g>
<defs>
<clipPath id="clip0_622_1871">
<rect width="268.933" height="183.364" fill="white"/>
</clipPath>
</defs>
</svg>
