<svg width="123" height="100" viewBox="0 0 123 100" fill="none" xmlns="http://www.w3.org/2000/svg">
<path opacity="0.2" d="M22.3077 100C33.4615 100 44.6154 97.6923 51.1538 94.6154C46.9231 86.1538 44.2308 73.8462 44.2308 61.5385C44.2308 46.5385 46.5385 27.6923 55.7692 12.3077C52.6923 5 42.6923 0.384615 35 0C17.3077 14.2308 0 43.0769 0 71.9231C0 82.3077 1.15385 90.7692 3.46154 96.9231C8.84615 99.2308 16.1538 100 22.3077 100ZM89.2308 100C100.385 100 111.538 97.6923 118.077 94.6154C113.846 86.1538 111.154 73.8462 111.154 61.5385C111.154 46.5385 113.846 27.6923 122.692 12.3077C119.615 5 109.615 0.384615 101.923 0C84.2308 14.2308 66.5385 43.0769 66.5385 71.9231C66.5385 82.3077 68.0769 90.7692 70.3846 96.9231C75.7692 99.2308 82.6923 100 89.2308 100Z" fill="#9DBC78"/>
</svg>
