<svg width="124" height="100" viewBox="0 0 124 100" fill="none" xmlns="http://www.w3.org/2000/svg">
<g clip-path="url(#clip0_622_1842)">
<path opacity="0.2" d="M20.7692 100C38.4615 86.1539 56.1538 56.9232 56.1538 28.077C56.1538 17.6924 54.6154 9.23085 52.3077 3.077C46.2359 1.02884 39.8695 -0.0105703 33.4615 8.10375e-05C22.3077 8.10375e-05 11.1538 2.69239 4.61538 5.76931C8.84615 14.2309 11.1538 26.1539 11.1538 38.8462C11.1538 53.8462 8.84615 72.3078 0 87.6924C3.07692 95.0001 13.0769 99.6155 20.7692 100ZM87.6923 100C105.385 86.1539 123.077 56.9232 123.077 28.077C123.077 17.6924 121.538 9.23085 119.231 3.077C113.159 1.02884 106.793 -0.0105703 100.385 8.10375e-05C89.2308 8.10375e-05 78.0769 2.69239 71.5385 5.76931C75.7692 14.2309 78.4615 26.1539 78.4615 38.8462C78.4615 53.8462 76.1538 72.3078 66.9231 87.6924C70 95.0001 80 99.6155 87.6923 100Z" fill="#9DBC78"/>
</g>
<defs>
<clipPath id="clip0_622_1842">
<rect width="123.077" height="100" fill="white"/>
</clipPath>
</defs>
</svg>
