<svg width="83" height="37" viewBox="0 0 83 37" fill="none" xmlns="http://www.w3.org/2000/svg">
<path d="M19.0638 24.7871H19.9733V36.8529H17.8594V24.7871H19.0638Z" fill="#F8D100"/>
<path d="M19.0638 12.6309H19.9733V24.7858H17.8594V12.6309H19.0638Z" fill="#E3000F"/>
<path d="M12.3381 4.83896C12.9509 5.81648 13.4518 5.79379 14.1781 5.79379C13.5653 5.33988 13.1779 4.72549 12.9736 4.43045L11.8372 2.6132C11.7237 2.04582 11.4287 1.52221 10.9959 1.13639C11.132 1.09099 11.2682 1.02291 11.3363 0.977519C10.6084 0.977519 9.85949 0.614393 9.47367 0.614393C9.22402 0.614393 9.04246 0.773261 9.04246 0.977519C9.06515 1.20447 9.29211 1.43143 9.72332 1.43143C9.8141 1.43143 9.95027 1.40873 10.0864 1.38603C10.3134 1.70377 10.5177 1.99881 10.5177 2.43164C10.5177 3.2276 9.56283 3.84037 8.60963 3.84037C8.56424 3.84037 8.49615 3.84037 8.45076 3.84037C8.35998 3.63611 8.08764 3.31838 8.08764 2.93094C8.08764 2.29547 8.49615 1.79455 8.49615 1.15908C8.49615 0.773261 8.31459 0.523611 8.22381 0.431209C8.33728 0.317732 8.47345 0.181562 8.49615 0.0907808C8.42806 0.113476 8.33728 0.113476 8.22381 0.113476C7.7699 0.113476 7.38246 0 7.01933 0C6.81508 0 6.74699 0.0680853 6.74699 0.136171C6.74699 0.158867 6.74699 0.181562 6.74699 0.181562C6.67891 0.158866 6.58812 0.136171 6.52004 0.113476C6.40656 0.0907807 6.29308 0.0907808 6.17961 0.0907808C5.7484 0.0907808 5.58953 0.272342 5.58953 0.431209C5.58953 0.567381 5.70301 0.817029 5.81648 0.998592C5.99805 0.90781 6.2023 0.86242 6.29308 0.86242C6.52004 0.86242 6.74699 1.08937 6.83777 1.36172C6.6789 1.38441 6.65621 1.38441 6.49734 1.38441C6.06613 1.38441 5.76947 1.22555 5.70139 1.22555L5.67869 1.24824C5.67869 1.31633 5.79217 1.47519 6.04181 1.56597C6.35955 1.67945 6.83777 1.72484 6.90586 1.74754C6.90586 1.77023 6.81508 1.9064 6.7243 1.9291C6.7016 1.9291 6.7016 1.9291 6.6789 1.9291C6.33848 1.86101 6.24769 1.83832 5.83756 1.67945C5.81486 1.67945 5.81486 1.67945 5.81486 1.70215C5.81486 1.86102 6.24607 2.22414 6.63351 2.38301C6.31578 2.79152 5.90564 3.22435 5.72408 3.85982C5.67869 3.85982 5.6106 3.85982 5.56521 3.85982C4.61039 3.85982 3.65719 3.24705 3.65719 2.45109C3.65719 2.01988 3.83875 1.72322 4.0884 1.40549C4.22457 1.42818 4.36074 1.45088 4.45152 1.45088C4.88273 1.45088 5.10969 1.22392 5.13238 0.996971C5.13238 0.792714 4.97351 0.633846 4.70117 0.633846C4.29265 0.633846 3.56478 0.996971 2.83853 0.996971C2.90662 1.04236 3.04279 1.11045 3.17896 1.15584C2.74775 1.54166 2.45109 2.06527 2.33762 2.63265L1.20447 4.45152C1.02291 4.74656 0.614394 5.33826 0 5.81486C0.727871 5.81486 1.20447 5.83756 1.83994 4.86004L2.40732 3.92791C2.45271 4.04139 2.4981 4.15486 2.56619 4.29103L1.40711 6.13097C1.22555 6.42601 0.817031 7.01771 0.202637 7.49431C0.930507 7.49431 1.40711 7.51701 2.04258 6.53949L3.04279 4.9492C3.11088 5.01728 3.20166 5.10806 3.26975 5.17615L1.86101 7.42623C1.67945 7.72127 1.27094 8.31297 0.656543 8.78957C1.38441 8.78957 1.88371 8.81226 2.49648 7.83474L3.85982 5.65275C3.9506 5.69814 4.04139 5.76623 4.13217 5.81162L2.47379 8.47021C2.29223 8.78795 1.88371 9.35695 1.26932 9.83355C1.99719 9.83355 2.49648 9.85625 3.10926 8.87873L4.81303 6.12935C4.90381 6.17474 5.01728 6.19744 5.13076 6.24283L3.20004 9.33263C3.01848 9.62767 2.60996 10.2421 1.99557 10.696C2.72344 10.696 3.20004 10.7187 3.83551 9.74115L5.9024 6.44709C5.9251 6.44709 5.94779 6.44709 5.97049 6.46978C6.01588 6.65134 6.06127 6.81021 6.06127 6.99177C6.06127 8.03738 5.38041 8.94519 4.56176 9.65037C4.60715 9.67306 4.69793 9.67306 4.78871 9.67306C4.94758 9.67306 5.06105 9.67306 5.15183 9.65037C4.97027 10.0816 4.56176 10.6279 4.35588 10.9229C4.08353 10.8775 3.69771 10.8321 3.44644 10.8321C3.1741 10.8321 3.15141 10.991 3.15141 11.1272C3.15141 11.3768 3.26488 11.5584 3.40105 11.6719C3.44644 11.5584 3.55992 11.3768 4.03652 11.3768C4.03652 11.3768 4.05922 11.3768 4.08191 11.3768C3.94574 11.5357 3.49183 11.8988 3.49183 12.1955C3.49183 12.3997 3.69609 12.6721 3.99113 12.6721C3.96844 12.604 3.96844 12.5586 3.96844 12.5132C3.96844 12.2863 4.17269 11.9912 4.35426 11.8097C4.35426 11.8777 4.35426 11.8551 4.35426 11.9231C4.35426 12.4905 4.39965 12.7418 4.76277 12.7418C4.94433 12.7418 5.05781 12.651 5.1032 12.6283C4.87625 12.4241 4.85355 12.2425 4.85355 11.9248C4.85355 11.834 4.85355 11.7659 4.85355 11.6524C4.85355 11.5843 4.85355 11.4936 4.83086 11.4255C4.96703 11.4028 5.01242 11.4028 5.1032 11.4028C5.1032 11.4028 5.6025 11.3574 5.73867 11.6297C5.87484 11.4936 6.0791 11.3347 6.0791 11.1304C6.0791 10.9943 6.01101 10.8581 5.76137 10.8581C5.67058 10.8581 5.35285 10.9262 5.08051 10.9262C5.14859 10.7673 5.46633 10.3134 5.73867 9.99404C5.78406 10.1302 5.85215 10.2664 5.98832 10.3799C6.01101 10.1756 6.12449 9.49312 6.46492 9.1073C6.51031 9.37965 6.5557 9.65199 6.5557 10.221C6.5557 11.6297 6.21527 12.6526 5.5101 12.8569C5.60088 13.0158 5.80514 13.1746 6.00939 13.1746C6.25904 13.1746 6.41791 12.8796 6.55408 12.6072C6.62217 12.8115 6.84912 13.3108 7.05338 13.3108C7.25764 13.3108 7.46189 12.8115 7.55267 12.6072C7.68885 12.8796 7.84771 13.1746 8.09736 13.1746C8.30162 13.1746 8.50588 13.0385 8.59666 12.8569C7.8931 12.6526 7.55105 11.6297 7.55105 10.221C7.55105 9.65361 7.59644 9.37965 7.64183 9.1073C7.98226 9.49312 8.09574 10.1756 8.11844 10.3799C8.25461 10.2664 8.32269 10.1302 8.36808 9.99404C8.64043 10.3345 8.95816 10.79 9.02625 10.9262C8.7766 10.9262 8.45887 10.8581 8.34539 10.8581C8.09574 10.8581 8.02765 10.9943 8.02765 11.1304C8.02765 11.3347 8.23191 11.4936 8.36808 11.6297C8.48156 11.3574 9.00355 11.4028 9.00355 11.4028C9.09433 11.4028 9.16242 11.4028 9.2759 11.4255C9.2532 11.4936 9.2532 11.5843 9.2532 11.6524C9.2532 11.7659 9.2532 11.834 9.2532 11.9248C9.2532 12.2425 9.23051 12.4014 9.00355 12.6283C9.04894 12.651 9.16242 12.7418 9.34398 12.7418C9.70711 12.7418 9.7525 12.4921 9.7525 11.9231C9.7525 11.8551 9.7525 11.8551 9.7525 11.8097C9.93406 12.0139 10.1383 12.2863 10.1383 12.5132C10.1383 12.5586 10.1383 12.604 10.1156 12.6721C10.388 12.6721 10.6149 12.377 10.6149 12.1955C10.6149 11.9004 10.161 11.5373 10.0248 11.3768C10.0475 11.3768 10.0702 11.3768 10.0702 11.3768C10.5695 11.3768 10.6603 11.5357 10.7057 11.6719C10.8419 11.5584 10.9553 11.3768 10.9553 11.1272C10.9553 10.991 10.9327 10.8321 10.6603 10.8321C10.4107 10.8321 10.0248 10.8775 9.75088 10.9229C9.54662 10.6279 9.1381 10.0816 8.95492 9.65037C9.02301 9.67306 9.13648 9.67306 9.31804 9.67306C9.40883 9.67306 9.49961 9.67306 9.545 9.65037C8.72635 8.94681 8.04549 8.01468 8.04549 6.99177C8.04549 6.83291 8.09088 6.65134 8.13627 6.46978C8.15896 6.46978 8.18166 6.46978 8.20435 6.44709L10.2712 9.74115C10.884 10.7187 11.3849 10.696 12.1112 10.696C11.5211 10.2421 11.111 9.62767 10.9067 9.33263L8.97599 6.24283C9.08947 6.22013 9.18025 6.17474 9.29373 6.12935L10.9975 8.87873C11.6103 9.85625 12.1112 9.83355 12.8374 9.83355C12.2247 9.35695 11.8372 8.78795 11.633 8.47021L9.97459 5.81162C10.0654 5.76623 10.1561 5.69814 10.2469 5.65275L11.6103 7.83474C12.223 8.81226 12.724 8.78957 13.4502 8.78957C12.8374 8.31297 12.45 7.74396 12.2457 7.42623L10.837 5.17615C10.9278 5.10806 10.9959 5.01728 11.064 4.9492L12.0642 6.53949C12.6769 7.51701 13.1779 7.49431 13.9041 7.49431C13.2913 7.01771 12.9039 6.44871 12.6996 6.13097L11.5406 4.29103C11.6086 4.17756 11.654 4.06408 11.6994 3.92791L12.3381 4.83896ZM3.0898 2.70236C3.0898 2.0215 3.5891 1.47519 3.77066 1.31633C3.81605 1.31633 3.86144 1.33902 3.90683 1.33902C3.72527 1.56598 3.38484 1.95179 3.38484 2.45271C3.38484 3.45293 4.45314 4.33805 5.68031 4.33805C5.68031 4.42883 5.65762 4.51961 5.65762 4.61039C5.65762 4.76926 5.65762 4.90543 5.68031 5.0189C4.31697 5.04322 3.0898 3.92953 3.0898 2.70236ZM4.97514 10.9732V10.9959H4.99783C5.38365 10.9959 5.56521 10.9732 5.70139 10.9505C5.76947 10.9505 5.81486 10.9278 5.86025 10.9278C5.95103 10.9278 6.04181 10.9278 6.04181 11.064C6.04181 11.1547 5.95103 11.2682 5.86025 11.359C5.72408 11.2228 5.51982 11.2001 5.22478 11.2001C5.08861 11.2001 4.90705 11.2228 4.81627 11.2455H4.79357H4.77088V11.2909C4.77088 11.3817 4.79357 11.4725 4.79357 11.6087V11.7221V11.881C4.79357 12.1987 4.83896 12.403 4.95244 12.5392C4.92974 12.5392 4.88435 12.5619 4.83896 12.5619C4.63471 12.5619 4.56662 12.4711 4.56662 11.881C4.56662 11.7675 4.56662 11.654 4.56662 11.586V11.4725L4.54392 11.4952C4.24889 11.7221 3.93115 12.1306 3.90846 12.45C3.81767 12.3819 3.72689 12.2684 3.72689 12.155C3.72689 11.9961 3.97654 11.7237 4.27158 11.4514L4.43045 11.2925L4.45314 11.2698L4.40775 11.2471C4.33967 11.2245 4.22619 11.2018 4.13541 11.2018C3.81767 11.2018 3.59072 11.2698 3.47724 11.406C3.43185 11.3379 3.38646 11.1791 3.38646 11.0883C3.38646 11.0202 3.40916 10.9975 3.43185 10.9748C3.45455 10.9521 3.49994 10.9521 3.54533 10.9521C3.90846 10.9521 4.34129 11.0202 4.50015 11.0429C4.52285 10.9975 5.22803 10.0881 5.40959 9.58877C5.45498 9.56607 5.47767 9.56607 5.56846 9.56607C5.70463 9.56607 5.75002 9.65685 5.77271 9.79302C5.33988 10.2907 5.06754 10.7008 4.97514 10.9732ZM8.70203 9.51906C8.77011 9.51906 8.81551 9.54176 8.8609 9.54176C9.04246 10.0411 9.72494 10.9505 9.77033 10.9959C9.9292 10.9732 10.3831 10.9051 10.7252 10.9051C10.7705 10.9051 10.8159 10.9051 10.8386 10.9278C10.8613 10.9505 10.884 10.9959 10.884 11.0413C10.884 11.132 10.8386 11.2909 10.7932 11.359C10.6571 11.2228 10.4528 11.1547 10.1351 11.1547C10.0443 11.1547 9.90812 11.1774 9.86273 11.2001H9.84004H9.81572L9.99728 11.3817C10.2923 11.6767 10.542 11.9264 10.542 12.0852C10.542 12.176 10.4512 12.3122 10.3604 12.3803C10.3377 12.0626 10.02 11.6524 9.72494 11.4255L9.70224 11.4028V11.5162C9.70224 11.5843 9.70224 11.6978 9.70224 11.8113C9.70224 12.4014 9.63416 12.4921 9.4299 12.4921C9.4072 12.4921 9.36181 12.4921 9.31642 12.4695C9.4299 12.3333 9.47529 12.1517 9.47529 11.8113V11.6524V11.5389C9.47529 11.4028 9.49799 11.312 9.49799 11.2212V11.1758H9.47529C9.38451 11.1531 9.20295 11.1304 9.06678 11.1304C8.77174 11.1304 8.59017 11.1531 8.43131 11.2893C8.34052 11.2212 8.24974 11.085 8.24974 10.9943C8.24974 10.8808 8.31783 10.8581 8.43131 10.8581C8.4767 10.8581 8.52209 10.8581 8.59017 10.8808C8.70365 10.9035 8.90791 10.9262 9.29373 10.9262H9.31642V10.9035C9.22564 10.6311 8.9533 10.2226 8.52047 9.699C8.52047 9.60984 8.56586 9.51906 8.70203 9.51906ZM7.08904 1.49789C7.04365 1.31633 6.95287 1.13476 6.83939 0.998592C6.72592 0.86242 6.56705 0.726249 6.3174 0.726249C6.20392 0.726249 6.02236 0.771639 5.90889 0.81703C5.86349 0.748944 5.77271 0.544685 5.77271 0.453904C5.77271 0.363123 5.93158 0.272343 6.20392 0.272343C6.8167 0.272343 7.20414 0.544687 7.20414 1.02291C7.22521 1.20285 7.15713 1.36172 7.08904 1.49789ZM7.38408 0.885116C7.36139 0.748944 7.31599 0.635469 7.22521 0.521992C7.22521 0.408516 7.2706 0.272342 7.47486 0.385819C7.36138 0.499295 7.45217 0.680859 7.45217 0.680859C7.45217 0.680859 7.67912 0.590076 7.63373 0.431209C7.95308 0.520369 7.70181 0.953202 7.38408 0.885116ZM8.58855 5.04322C8.61125 4.90705 8.61125 4.77088 8.61125 4.63471C8.61125 4.56662 8.61125 4.47584 8.61125 4.36236C9.81572 4.33967 10.8613 3.47562 10.8613 2.47703C10.8613 1.97773 10.5209 1.59029 10.3393 1.36334C10.3847 1.36334 10.4301 1.34064 10.4755 1.34064C10.6571 1.49951 11.1564 2.0442 11.1564 2.72668C11.1564 3.90683 9.95189 5.02053 8.58855 5.04322Z" fill="white"/>
<path d="M19.9725 0.613281V12.7002H19.0631H17.8359V0.613281H19.9725Z" fill="black"/>
<path d="M56.3225 0.474609C55.9594 0.474609 55.7098 0.588087 55.5947 0.837735C55.5039 0.996602 55.4585 1.26895 55.4585 1.63369V2.01951H54.9592V2.40533H55.4585V5.44975H56.0032V2.40533H56.5933V2.01951H56.0032V1.52021C56.0032 1.33865 56.0259 1.17979 56.0486 1.1117C56.1166 0.998224 56.2301 0.930136 56.389 0.930136C56.4798 0.930136 56.5479 0.930136 56.5933 0.930136V0.498927C56.5041 0.474611 56.436 0.474609 56.3225 0.474609ZM24.4227 0.497305V5.42705H25.6271C26.1264 5.42705 26.4912 5.33627 26.7181 5.13201C26.9678 4.92775 27.1039 4.56463 27.1039 4.06371C27.1039 3.72328 27.0586 3.45094 26.9451 3.26775C26.8316 3.06349 26.6046 2.90463 26.2869 2.83654C26.5593 2.74576 26.7635 2.60959 26.8543 2.42803C26.9678 2.26916 27.0132 2.01951 27.0132 1.72447C27.0132 1.29326 26.8997 0.973907 26.6954 0.76965C26.4912 0.588087 26.1734 0.474609 25.7179 0.474609H24.4227V0.497305ZM36.3507 0.497305V2.31455C36.1691 2.04221 35.9194 1.90604 35.5774 1.90604C35.1689 1.90604 34.8738 2.0876 34.7134 2.47342C34.5999 2.74576 34.5318 3.13158 34.5318 3.65519C34.5318 4.19988 34.5772 4.63271 34.6907 4.88236C34.8495 5.26818 35.1446 5.47244 35.6001 5.47244C35.9405 5.47244 36.2129 5.31357 36.3961 5.01853V5.40436H36.918C36.8953 5.08662 36.8953 4.88236 36.8953 4.76889V0.497305H36.3507ZM57.6632 0.567013V1.22518H58.1625V0.567013H57.6632ZM58.7088 0.567013V1.22518H59.2308V0.567013H58.7088ZM25.0127 0.975527H25.5801C25.8752 0.975527 26.0794 1.02092 26.2156 1.1344C26.3745 1.24787 26.4425 1.47482 26.4425 1.76986C26.4425 2.35994 26.1702 2.6566 25.6012 2.6566H24.9884V0.975527H25.0127ZM52.3249 1.1344L51.7802 1.38404V2.01951H51.2582V2.40533H51.7802V4.63272C51.7802 4.95045 51.8256 5.15471 51.9164 5.26818C52.0299 5.40436 52.2341 5.47244 52.5519 5.47244C52.6426 5.47244 52.7788 5.47244 52.9604 5.44975V5.01853C52.8242 5.04123 52.7334 5.04123 52.7107 5.04123C52.5519 5.04123 52.4611 5.01853 52.393 4.95045C52.3476 4.88236 52.3022 4.74619 52.3022 4.56463V2.40533H52.915V2.01951H52.3022V1.13277H52.3249V1.1344ZM32.7389 1.92873C32.3303 1.92873 32.0353 2.11029 31.8521 2.47342V1.99682H31.3074C31.3301 2.20107 31.3301 2.45072 31.3301 2.74738V5.42867H31.8748V3.36178C31.8748 3.08943 31.9202 2.86248 32.0337 2.65822C32.1699 2.43127 32.3287 2.31779 32.5784 2.31779C32.8053 2.31779 32.9642 2.40857 33.055 2.61283C33.1004 2.72631 33.1231 2.93057 33.1231 3.22561V5.43029H33.6678V2.99865C33.6483 2.29348 33.3516 1.92873 32.7389 1.92873ZM39.0093 1.92873C38.4873 1.92873 38.1225 2.13299 37.9636 2.5415C37.8502 2.81385 37.8048 3.24506 37.8048 3.85945C37.8048 4.40414 37.8729 4.79158 38.009 5.01853C38.1906 5.33627 38.5083 5.49514 38.9866 5.49514C39.7144 5.49514 40.1002 5.10932 40.1456 4.35875H39.6236C39.601 4.85805 39.3967 5.10931 39.0109 5.10931C38.7385 5.10931 38.5797 4.99584 38.4889 4.76889C38.4208 4.61002 38.3981 4.36037 38.3981 4.01832V3.79137H40.1927V3.6325C40.1927 3.08781 40.1473 2.70037 40.0338 2.47342C39.8279 2.11191 39.5102 1.92873 39.0093 1.92873ZM41.8948 1.92873C41.5998 1.92873 41.3501 1.99682 41.1669 2.15568C40.9627 2.31455 40.8719 2.5415 40.8719 2.83654C40.8719 3.10889 40.9627 3.31314 41.1442 3.47201C41.235 3.56279 41.4393 3.67627 41.757 3.85783C41.984 3.994 42.1428 4.08478 42.2109 4.15287C42.3244 4.26635 42.3698 4.40252 42.3698 4.60678C42.3698 4.9699 42.1882 5.12877 41.8478 5.12877C41.5527 5.12877 41.3712 4.94721 41.3485 4.58408C41.3485 4.516 41.3485 4.4706 41.3485 4.40252H40.8038C40.7811 5.15308 41.1442 5.51621 41.8494 5.51621C42.5773 5.51621 42.9177 5.17578 42.9177 4.516C42.9177 4.26635 42.8269 4.03939 42.6681 3.88053C42.5546 3.76705 42.373 3.65357 42.1007 3.49471C41.851 3.35854 41.6922 3.26775 41.6241 3.19967C41.4879 3.08619 41.4198 2.95002 41.4198 2.79115C41.4198 2.65498 41.4652 2.5415 41.556 2.45072C41.6468 2.35994 41.7602 2.31455 41.8964 2.31455C42.2142 2.31455 42.373 2.51881 42.373 2.95002H42.9177C42.9177 2.60959 42.8269 2.33725 42.6681 2.17676C42.5092 2.02113 42.2595 1.92873 41.8948 1.92873ZM44.7803 1.92873C44.4399 1.92873 44.1903 1.99682 43.9844 2.13299C43.7574 2.29185 43.644 2.51881 43.644 2.83654V2.85924H44.1886V2.83654C44.1886 2.67768 44.234 2.5415 44.3475 2.45072C44.461 2.35994 44.5972 2.31455 44.756 2.31455C44.983 2.31455 45.1418 2.40533 45.2099 2.58689C45.2553 2.70037 45.278 2.88193 45.278 3.17697V3.33584C44.7106 3.33584 44.3005 3.40393 44.0509 3.5174C43.6877 3.67627 43.4835 4.0167 43.4835 4.49492C43.4835 4.78996 43.5516 5.03961 43.6877 5.22279C43.8466 5.40436 44.0735 5.51783 44.3686 5.51783C44.7544 5.51783 45.0494 5.35896 45.3007 5.01853V5.47244H45.8227C45.8 5.15471 45.7773 4.79158 45.7773 4.38145V3.10889C45.7773 2.70037 45.7092 2.42803 45.5504 2.24484C45.4401 2.02113 45.1678 1.92873 44.7803 1.92873ZM48.1441 1.92873C47.781 1.92873 47.5086 2.11029 47.3255 2.45072V1.99682H46.7808C46.8035 2.17838 46.8035 2.38264 46.8035 2.58689V5.42705H47.3482V3.31477C47.3482 3.04242 47.3935 2.79277 47.4843 2.63391C47.5978 2.42965 47.7567 2.33887 47.9609 2.33887C48.1652 2.33887 48.3241 2.42965 48.3694 2.58852C48.4148 2.6793 48.4148 2.83816 48.4148 3.08781V5.42867H48.9595V3.26938C48.9595 2.6566 49.1638 2.33725 49.5723 2.33725C49.7766 2.33725 49.9127 2.42803 49.9808 2.58689C50.0262 2.70037 50.0489 2.85924 50.0489 3.10889V5.42705H50.5936V3.08619C50.5936 2.67768 50.5255 2.40533 50.412 2.22215C50.2759 2.01789 50.0489 1.90442 49.7539 1.90442C49.3907 1.90442 49.0957 2.08598 48.9125 2.42641C48.8023 2.11192 48.5299 1.92873 48.1441 1.92873ZM61.9801 1.92873C61.5943 1.92873 61.2993 2.11029 61.1161 2.45072V1.99682H60.5941C60.6168 2.17838 60.6168 2.38264 60.6168 2.60959V5.42705H61.1615V3.29207C61.1615 3.01973 61.2296 2.81547 61.3658 2.6566C61.5019 2.49774 61.6835 2.40695 61.9558 2.40695C61.9785 2.40695 62.0239 2.40695 62.0693 2.42965C62.0482 2.11191 62.0255 1.92873 61.9801 1.92873ZM28.0134 1.99844V4.43008C28.0134 5.13363 28.3311 5.49838 28.9455 5.49838C29.3086 5.49838 29.6037 5.33951 29.8095 4.99908V5.43029H30.3542C30.3315 5.20334 30.3315 4.95369 30.3315 4.67973V1.99844H29.7869V4.08803C29.7869 4.74619 29.5599 5.08824 29.106 5.08824C28.8563 5.08824 28.7202 4.99746 28.6294 4.7932C28.584 4.67973 28.5613 4.47547 28.5613 4.20312V1.99844H28.0134ZM57.2774 1.99844V4.43008C57.2774 5.13363 57.5951 5.49838 58.2095 5.49838C58.5726 5.49838 58.8676 5.33951 59.0735 4.99908V5.43029H59.6182C59.5955 5.20334 59.5955 4.95369 59.5955 4.67973V1.99844H59.0508V4.08803C59.0508 4.74619 58.8239 5.08824 58.37 5.08824C58.1203 5.08824 57.9615 4.99746 57.8934 4.7932C57.848 4.67973 57.8253 4.47547 57.8253 4.20312V1.99844H57.2774ZM39.0093 2.31617C39.2816 2.31617 39.4632 2.45234 39.5312 2.72469C39.5766 2.86086 39.5993 3.08781 39.5993 3.42824H38.3495C38.3495 3.29207 38.3495 3.1332 38.3722 2.97434C38.4192 2.54312 38.6234 2.31617 39.0093 2.31617ZM35.7152 2.31617C35.9875 2.31617 36.1691 2.47504 36.2599 2.74738C36.328 2.95164 36.3734 3.26937 36.3734 3.7476C36.3734 4.17881 36.3507 4.47547 36.2826 4.65703C36.1918 4.95207 35.9875 5.08824 35.7152 5.08824C35.4655 5.08824 35.284 4.95207 35.1932 4.65703C35.1251 4.45277 35.0797 4.11234 35.0797 3.65682C35.0797 3.2483 35.1024 2.92895 35.1705 2.74738C35.284 2.47504 35.4655 2.31617 35.7152 2.31617ZM25.0127 3.11051H25.6255C25.9432 3.11051 26.1702 3.17859 26.3064 3.33746C26.4425 3.49633 26.5106 3.72328 26.5106 4.06533C26.5106 4.42846 26.4198 4.6781 26.261 4.8159C26.1248 4.92937 25.8752 4.97476 25.5331 4.97476H25.0111L25.0127 3.11051ZM45.1451 3.70221H45.2813V4.11072C45.2813 4.38307 45.2359 4.58732 45.1451 4.76889C45.0316 4.99584 44.8274 5.10931 44.5777 5.10931C44.2373 5.10931 44.0784 4.88236 44.0784 4.45115C44.0768 3.95185 44.4172 3.70221 45.1451 3.70221ZM23.9688 7.76953L25.264 12.6993H25.9676L27.2628 7.76953H26.6954L25.6271 12.1546L24.5815 7.76953H23.9688ZM32.8296 7.76953V12.0411C32.8296 12.1773 32.8296 12.3815 32.807 12.6993H33.3289V12.3135C33.5105 12.6085 33.7828 12.7674 34.1476 12.7674C34.6015 12.7674 34.8982 12.5631 35.057 12.1546C35.1478 11.8822 35.2159 11.4964 35.2159 10.9501C35.2159 10.4281 35.1705 10.0407 35.0797 9.79103C34.9209 9.40521 34.6485 9.20096 34.2157 9.20096C33.8752 9.20096 33.6029 9.33713 33.397 9.63217V7.76953H32.8296ZM47.3708 7.76953V12.6993H47.9155V10.6097C47.9155 9.92883 48.1425 9.58678 48.6191 9.58678C48.846 9.58678 49.0049 9.67756 49.0957 9.88181C49.1411 9.99529 49.1638 10.1995 49.1638 10.4946V12.6993H49.7085V10.2676C49.7085 9.53976 49.4134 9.17664 48.799 9.17664C48.4359 9.17664 48.1636 9.33551 47.935 9.65324V7.76791H47.3708V7.76953ZM61.3674 7.76953V12.6993H61.9121V10.6097C61.9121 9.92883 62.139 9.58678 62.6156 9.58678C62.8426 9.58678 63.0014 9.67756 63.0922 9.88181C63.1376 9.99529 63.1603 10.1995 63.1603 10.4946V12.6993H63.705V10.2676C63.705 9.53976 63.41 9.17664 62.7956 9.17664C62.4324 9.17664 62.1601 9.33551 61.9315 9.65324V7.76791H61.3674V7.76953ZM82.4302 7.76953V9.58678C82.2487 9.31443 81.999 9.17826 81.657 9.17826C81.2485 9.17826 80.9534 9.35982 80.7929 9.74564C80.6795 10.018 80.6114 10.4038 80.6114 10.9274C80.6114 11.4721 80.6568 11.8822 80.7702 12.1546C80.9291 12.5404 81.2241 12.7447 81.6797 12.7447C82.0201 12.7447 82.2924 12.5858 82.4756 12.2908V12.6993H82.9976C82.9749 12.3815 82.9749 12.1773 82.9749 12.0411V7.76953H82.4302ZM68.7288 8.3823L68.1841 8.63195V9.26742H67.6621V9.67593H68.1841V11.9033C68.1841 12.2211 68.2295 12.4253 68.3202 12.5615C68.4337 12.6977 68.638 12.7657 68.9557 12.7657C69.0465 12.7657 69.1827 12.7657 69.3415 12.743V12.3118C69.2054 12.3345 69.1146 12.3345 69.0919 12.3345C68.933 12.3345 68.8422 12.3118 68.7741 12.2437C68.7288 12.1757 68.6834 12.0622 68.6834 11.8579V9.69863H69.2961V9.29012H68.6834V8.38068H68.7288V8.3823ZM28.7396 9.17826C28.2176 9.17826 27.8529 9.38252 27.694 9.79103C27.5805 10.0634 27.5352 10.4946 27.5352 11.109C27.5352 11.6537 27.6032 12.0411 27.7394 12.2681C27.921 12.5858 28.2387 12.7674 28.7169 12.7674C29.4448 12.7674 29.8306 12.3815 29.876 11.6083H29.354C29.3313 12.1076 29.1271 12.3588 28.7412 12.3588C28.4689 12.3588 28.31 12.2454 28.2193 12.0184C28.1512 11.8595 28.1285 11.6099 28.1285 11.2678V11.0409H29.923V10.882C29.923 10.3373 29.8776 9.9499 29.7642 9.72295C29.5583 9.35982 29.2389 9.17826 28.7396 9.17826ZM39.1227 9.17826C38.7823 9.17826 38.5327 9.24635 38.3268 9.38252C38.0998 9.54138 37.9863 9.76834 37.9863 10.0861V10.1315H38.531V10.0861C38.531 9.92721 38.5764 9.79103 38.6899 9.70025C38.8034 9.60947 38.9395 9.56408 39.0984 9.56408C39.3254 9.56408 39.4842 9.65486 39.575 9.83642C39.6204 9.9499 39.6431 10.1315 39.6431 10.4265V10.5854C39.0757 10.5854 38.6656 10.6535 38.4386 10.7669C38.0755 10.9258 37.8712 11.2662 37.8712 11.7445C37.8712 12.0395 37.9393 12.2891 38.0755 12.4723C38.2344 12.6539 38.4613 12.7674 38.7564 12.7674C39.1422 12.7674 39.4372 12.6085 39.6885 12.2681V12.722H40.2105C40.1878 12.4042 40.1878 12.0411 40.1878 11.631V10.3584C40.1878 9.9499 40.1197 9.67756 39.9608 9.49437C39.8052 9.26904 39.5329 9.17826 39.1227 9.17826ZM45.5536 9.17826C45.0543 9.17826 44.7123 9.38252 44.5307 9.76834C44.4172 10.018 44.3491 10.4492 44.3491 11.0409C44.3491 11.6326 44.4172 12.0638 44.5534 12.2908C44.7123 12.6085 45.0527 12.7674 45.5309 12.7674C46.2345 12.7674 46.5992 12.3815 46.5992 11.631H46.0772C46.0772 11.8579 46.0318 12.0395 45.9637 12.153C45.873 12.3118 45.7368 12.3799 45.5098 12.3799C45.2602 12.3799 45.1013 12.2664 45.0105 12.0395C44.9425 11.8352 44.8971 11.4948 44.8971 10.9712C44.8971 10.5173 44.9198 10.1979 44.9651 10.0164C45.0559 9.72133 45.2375 9.56246 45.5098 9.56246C45.873 9.56246 46.0318 9.81211 46.0318 10.2903H46.5538C46.5538 9.90451 46.4857 9.63217 46.3269 9.44898C46.2345 9.26904 45.9621 9.17826 45.5536 9.17826ZM51.8013 9.17826C51.2793 9.17826 50.9146 9.38252 50.7557 9.79103C50.6422 10.0634 50.5968 10.4946 50.5968 11.109C50.5968 11.6537 50.6649 12.0411 50.8011 12.2681C50.9826 12.5858 51.3004 12.7674 51.7786 12.7674C52.5065 12.7674 52.8923 12.3815 52.9377 11.6083H52.4157C52.393 12.1076 52.1887 12.3588 51.8029 12.3588C51.5306 12.3588 51.3717 12.2454 51.2809 12.0184C51.2128 11.8595 51.1902 11.6099 51.1902 11.2678V11.0409H52.9847V10.882C52.9847 10.3373 52.9393 9.9499 52.8258 9.72295C52.62 9.35982 52.2795 9.17826 51.8013 9.17826ZM56.6646 9.17826C56.3695 9.17826 56.1199 9.24635 55.9367 9.40521C55.7325 9.56408 55.6417 9.79103 55.6417 10.0861C55.6417 10.3584 55.7325 10.5627 55.8913 10.7215C55.9821 10.8123 56.1864 10.9258 56.5041 11.1074C56.731 11.2435 56.8899 11.3343 56.958 11.4024C57.0715 11.5159 57.1169 11.6747 57.1169 11.8563C57.1169 12.2194 56.9353 12.3783 56.5949 12.3783C56.2998 12.3783 56.1183 12.1967 56.0956 11.8336C56.0956 11.7655 56.0956 11.7201 56.0956 11.652H55.5509C55.5282 12.4026 55.8913 12.7657 56.5965 12.7657C57.3244 12.7657 57.6648 12.4253 57.6648 11.7655C57.6648 11.5159 57.574 11.2889 57.4151 11.1301C57.3017 11.0166 57.1201 10.9031 56.8478 10.7442C56.5981 10.6081 56.4393 10.5173 56.3712 10.4492C56.235 10.3357 56.1669 10.1996 56.1669 10.0634C56.1669 9.92721 56.2123 9.81373 56.3031 9.72295C56.3939 9.63217 56.5073 9.58678 56.6435 9.58678C56.9612 9.58678 57.1201 9.79103 57.1201 10.2222H57.6648C57.6648 9.88182 57.574 9.63217 57.4151 9.44898C57.2774 9.26904 57.0277 9.17826 56.6646 9.17826ZM59.5501 9.17826C59.0508 9.17826 58.6861 9.38252 58.5272 9.76834C58.4137 10.018 58.3684 10.4492 58.3684 11.0409C58.3684 11.6326 58.4364 12.0638 58.5499 12.2908C58.7088 12.6085 59.0492 12.7674 59.5501 12.7674C60.2537 12.7674 60.6184 12.3815 60.6184 11.631H60.0964C60.0964 11.8579 60.051 12.0395 59.983 12.153C59.8922 12.3118 59.756 12.3799 59.529 12.3799C59.2794 12.3799 59.1205 12.2664 59.0298 12.0395C58.9617 11.8352 58.9163 11.4948 58.9163 10.9712C58.9163 10.5173 58.939 10.1979 58.9844 10.0164C59.0751 9.72133 59.2567 9.56246 59.529 9.56246C59.8922 9.56246 60.051 9.81211 60.051 10.2903H60.573C60.573 9.90451 60.505 9.63217 60.3461 9.44898C60.231 9.26904 59.9586 9.17826 59.5501 9.17826ZM78.8168 9.17826C78.4083 9.17826 78.1133 9.35982 77.9301 9.72295V9.24635H77.4081C77.4308 9.4506 77.4308 9.70025 77.4308 9.99691V12.6782H77.9755V10.6113C77.9755 10.339 78.0209 10.112 78.1343 9.90775C78.2705 9.6808 78.4294 9.56732 78.679 9.56732C78.906 9.56732 79.0648 9.6581 79.1556 9.86236C79.201 9.97584 79.2237 10.1801 79.2237 10.4751V12.6798H79.7684V10.2222C79.7036 9.54139 79.4069 9.17826 78.8168 9.17826ZM32.1245 9.17826C31.7386 9.17826 31.4436 9.35982 31.2604 9.70025V9.24635H30.7384C30.7611 9.42791 30.7611 9.63217 30.7611 9.88181V12.6993H31.3058V10.5643C31.3058 10.292 31.3739 10.0877 31.5101 9.92883C31.6462 9.76996 31.8278 9.70187 32.1002 9.70187C32.1228 9.70187 32.1682 9.70187 32.2136 9.72457C32.1699 9.35982 32.1472 9.17826 32.1245 9.17826ZM37.4644 9.17826C37.0785 9.17826 36.7835 9.35982 36.6003 9.70025V9.24635H36.0783C36.101 9.42791 36.101 9.63217 36.101 9.88181V12.6993H36.6457V10.5643C36.6457 10.292 36.7138 10.0877 36.85 9.92883C36.9861 9.76996 37.1677 9.70187 37.44 9.70187C37.4627 9.70187 37.5081 9.70187 37.5535 9.72457C37.5097 9.35982 37.487 9.17826 37.4644 9.17826ZM55.1651 9.17826C54.7792 9.17826 54.4842 9.35982 54.301 9.70025V9.24635H53.779C53.8017 9.42791 53.8017 9.63217 53.8017 9.88181V12.6993H54.3464V10.5643C54.3464 10.292 54.4145 10.0877 54.5507 9.92883C54.6868 9.76996 54.8684 9.70187 55.1408 9.70187C55.1635 9.70187 55.2088 9.70187 55.2542 9.72457C55.2105 9.35982 55.2105 9.17826 55.1651 9.17826ZM41.1912 9.24635V11.678C41.1912 12.3815 41.4863 12.7463 42.1007 12.7463C42.4638 12.7463 42.7588 12.5874 42.9647 12.247V12.6782H43.5094C43.4867 12.4512 43.4867 12.1789 43.4867 11.9276V9.24635H42.942V11.3359C42.942 11.9941 42.7151 12.3362 42.2612 12.3362C42.0115 12.3362 41.8526 12.2454 41.7846 12.0411C41.7392 11.9276 41.7165 11.7234 41.7165 11.451V9.24635H41.1912ZM64.7068 9.24635V11.678C64.7068 12.3815 65.0246 12.7463 65.639 12.7463C66.0021 12.7463 66.2971 12.5874 66.503 12.247V12.6782H67.0477C67.025 12.4512 67.025 12.1789 67.025 11.9276V9.24635H66.4803V11.3359C66.4803 11.9941 66.2533 12.3362 65.7994 12.3362C65.5498 12.3362 65.3909 12.2454 65.3228 12.0411C65.2775 11.9276 65.2548 11.7234 65.2548 11.451V9.24635H64.7068ZM69.8424 9.24635V9.65486H71.115L69.7744 12.2681V12.6993H71.7051V12.2908H70.3417L71.6824 9.67756V9.24635H69.8424ZM74.0913 9.24635V11.678C74.0913 12.3815 74.4091 12.7463 75.0235 12.7463C75.3866 12.7463 75.6816 12.5874 75.8875 12.247V12.6782H76.4322C76.4095 12.4512 76.4095 12.1789 76.4095 11.9276V9.24635H75.8421V11.3359C75.8421 11.9941 75.6152 12.3362 75.1613 12.3362C74.9116 12.3362 74.7754 12.2454 74.6847 12.0411C74.6393 11.9276 74.6166 11.7234 74.6166 11.451V9.24635H74.0913ZM28.7396 9.56408C29.012 9.56408 29.1935 9.70025 29.2616 9.9726C29.307 10.1088 29.3297 10.3357 29.3297 10.6762H28.0798C28.0798 10.54 28.0798 10.3811 28.1025 10.2222C28.1495 9.79103 28.3765 9.56408 28.7396 9.56408ZM51.7786 9.56408C52.0509 9.56408 52.2325 9.70025 52.3006 9.9726C52.346 10.1088 52.3687 10.3357 52.3687 10.6762H51.1188C51.1188 10.54 51.1188 10.3811 51.1415 10.2222C51.2112 9.79103 51.4155 9.56408 51.7786 9.56408ZM34.0341 9.56408C34.3065 9.56408 34.488 9.72295 34.5788 10.0634C34.6242 10.2449 34.6469 10.5173 34.6469 10.882C34.6469 11.4721 34.5788 11.8595 34.4426 12.0638C34.3292 12.2454 34.193 12.3135 34.0114 12.3135C33.7618 12.3135 33.5802 12.2 33.4667 11.973C33.376 11.7915 33.3306 11.451 33.3306 10.9501C33.3306 10.36 33.3986 9.9726 33.5348 9.79103C33.671 9.65486 33.8299 9.56408 34.0341 9.56408ZM81.7932 9.56408C82.0655 9.56408 82.2471 9.70025 82.3378 9.99529C82.4059 10.1995 82.4513 10.54 82.4513 10.9955C82.4513 11.4267 82.4286 11.7234 82.3605 11.9049C82.2698 12.2 82.0655 12.3362 81.7705 12.3362C81.5208 12.3362 81.3619 12.2 81.2485 11.9049C81.1804 11.7007 81.135 11.3603 81.135 10.9274C81.135 10.5189 81.1577 10.1995 81.2258 10.018C81.3392 9.72295 81.5208 9.56408 81.7932 9.56408ZM39.5102 10.9501H39.6463V11.3586C39.6463 11.631 39.601 11.8579 39.5102 12.0168C39.3967 12.2437 39.1924 12.3345 38.9428 12.3345C38.6024 12.3345 38.4435 12.1076 38.4435 11.6764C38.4419 11.1998 38.7823 10.9501 39.5102 10.9501ZM24.4227 15.0174V19.9472H26.5576V19.4706H25.0127V14.9947H24.4227V15.0174ZM30.3299 15.0174V19.289C30.3299 19.4252 30.3299 19.6295 30.3072 19.9472H30.8292V19.5387C31.0108 19.8337 31.2831 19.9926 31.6479 19.9926C32.1018 19.9926 32.3984 19.7883 32.5573 19.3798C32.6481 19.1075 32.7162 18.6989 32.7162 18.1526C32.7162 17.6306 32.6708 17.2432 32.58 17.0162C32.4211 16.6304 32.1488 16.4262 31.716 16.4262C31.3755 16.4262 31.1032 16.5623 30.8973 16.8574V15.0174H30.3299ZM56.1637 15.0174V19.9472H56.7083V15.0174H56.436H56.1637ZM64.8657 15.0174V19.9472H65.4104V17.8576C65.4104 17.1767 65.6373 16.8347 66.0912 16.8347C66.3182 16.8347 66.4771 16.9482 66.5678 17.1297C66.6132 17.2432 66.6359 17.4475 66.6359 17.7425V19.9472H67.1806V17.5155C67.1806 16.7877 66.8856 16.4472 66.2712 16.4472C65.9081 16.4472 65.6357 16.6061 65.4071 16.9238V15.0385H64.8657V15.0174ZM73.3635 15.0174V19.9472H73.9081V17.8576C73.9081 17.1767 74.1351 16.8347 74.6117 16.8347C74.8387 16.8347 74.9975 16.9482 75.0883 17.1297C75.1337 17.2432 75.1564 17.4475 75.1564 17.7425V19.9472H75.7011V17.5155C75.7011 16.7877 75.406 16.4472 74.7916 16.4472C74.4285 16.4472 74.1562 16.6061 73.9276 16.9238V15.0385H73.3602V15.0174H73.3635ZM47.4843 15.0855V15.6756H48.0744V15.0855H47.4843ZM60.4125 15.0855V15.6756H61.0026V15.0855H60.4125ZM79.7489 15.0855V15.6756H80.339V15.0855H79.7489ZM49.7798 15.6302L49.2351 15.8799V16.5153H48.7131V16.9011H49.2351V19.1285C49.2351 19.4463 49.2805 19.6505 49.3713 19.764C49.4848 19.9002 49.689 19.9683 50.0068 19.9683C50.0975 19.9683 50.2337 19.9683 50.4153 19.9456V19.5144C50.2791 19.537 50.1883 19.537 50.1656 19.537C50.0068 19.537 49.916 19.5144 49.8706 19.4463C49.8252 19.3782 49.7798 19.242 49.7798 19.0604V16.9011H50.3926V16.5153H49.7798V15.6302ZM51.7786 15.6302L51.2339 15.8799V16.5153H50.7119V16.9011H51.2339V19.1285C51.2339 19.4463 51.2793 19.6505 51.3701 19.764C51.4836 19.9002 51.6878 19.9683 52.0056 19.9683C52.0963 19.9683 52.2325 19.9683 52.3914 19.9456V19.5144C52.2552 19.537 52.1644 19.537 52.1417 19.537C51.9829 19.537 51.8921 19.5144 51.824 19.4463C51.7786 19.3782 51.7332 19.242 51.7332 19.0604V16.9011H52.346V16.5153H51.7332V15.6286H51.7786V15.6302ZM82.0201 15.6302L81.4754 15.8799V16.5153H80.9534V16.9011H81.4754V19.1285C81.4754 19.4463 81.5208 19.6505 81.6116 19.764C81.7251 19.9002 81.9293 19.9683 82.2471 19.9683C82.3378 19.9683 82.474 19.9683 82.6556 19.9456V19.5144C82.5194 19.537 82.4286 19.537 82.4059 19.537C82.2471 19.537 82.1563 19.5144 82.0882 19.4463C82.0428 19.3782 81.9974 19.242 81.9974 19.0604V16.9011H82.6102V16.5153H81.9974V15.6286H82.0201V15.6302ZM28.3538 16.4262C27.8318 16.4262 27.4671 16.6304 27.3082 17.0389C27.1947 17.3113 27.1493 17.7425 27.1493 18.3569C27.1493 18.9016 27.2174 19.289 27.3536 19.516C27.5352 19.8337 27.8529 19.9926 28.3311 19.9926C29.059 19.9926 29.4448 19.6068 29.4902 18.8562H28.9682C28.9455 19.3555 28.7412 19.6068 28.3554 19.6068C28.0831 19.6068 27.9242 19.4933 27.8334 19.2663C27.7653 19.1075 27.7427 18.8578 27.7427 18.5158V18.2888H29.5372V18.1299C29.5372 17.5853 29.4918 17.1978 29.3783 16.9709C29.1708 16.6077 28.8304 16.4262 28.3538 16.4262ZM34.6696 16.4262C34.1476 16.4262 33.8055 16.6304 33.624 17.0389C33.5105 17.3113 33.4424 17.7425 33.4424 18.3569C33.4424 18.9016 33.5105 19.289 33.6467 19.516C33.8282 19.8337 34.146 19.9926 34.6242 19.9926C35.3521 19.9926 35.7379 19.6068 35.7833 18.8562H35.2613C35.2386 19.3555 35.0343 19.6068 34.6485 19.6068C34.3762 19.6068 34.2173 19.4933 34.1265 19.2663C34.0584 19.1075 34.0357 18.8578 34.0357 18.5158V18.2888H35.8303V18.1299C35.8303 17.5853 35.7849 17.1978 35.6714 16.9709C35.4882 16.6077 35.1705 16.4262 34.6696 16.4262ZM38.0787 16.4262C37.6702 16.4262 37.3752 16.6077 37.192 16.9709V16.4943H36.67C36.6927 16.6985 36.6927 16.9255 36.6927 17.2448V19.9261H37.2374V17.8576C37.2374 17.5853 37.2828 17.3583 37.3963 17.154C37.5324 16.9271 37.6913 16.8136 37.941 16.8136C38.1679 16.8136 38.3268 16.9271 38.4176 17.1087C38.4629 17.2221 38.4856 17.4264 38.4856 17.7214V19.9261H39.0303V17.4718C38.9866 16.7893 38.6688 16.4262 38.0787 16.4262ZM40.8962 16.4262C40.6012 16.4262 40.3515 16.4943 40.1683 16.6531C39.9641 16.812 39.8733 17.0389 39.8733 17.334C39.8733 17.6063 39.9641 17.8106 40.1456 17.9694C40.2364 18.0602 40.4407 18.1737 40.7584 18.3553C40.9854 18.4914 41.1442 18.5822 41.2123 18.6503C41.3258 18.7638 41.3712 18.9 41.3712 19.1042C41.3712 19.4673 41.1896 19.6262 40.8492 19.6262C40.5542 19.6262 40.3726 19.4446 40.3499 19.0815C40.3499 19.0134 40.3499 18.968 40.3499 18.9H39.8052C39.7825 19.6505 40.1456 20.0137 40.8508 20.0137C41.5787 20.0137 41.9418 19.6732 41.9418 19.0134C41.9418 18.7638 41.851 18.5368 41.6922 18.3553C41.5787 18.2418 41.3971 18.1283 41.1248 17.9694C40.8751 17.8333 40.6936 17.7198 40.6255 17.6744C40.4893 17.5609 40.4212 17.4248 40.4212 17.2886C40.4212 17.1524 40.4666 17.0389 40.5347 16.9482C40.6255 16.8574 40.739 16.812 40.8751 16.812C41.1929 16.812 41.3517 17.0162 41.3517 17.4475H41.8964C41.8964 17.107 41.8056 16.8347 41.6468 16.6742C41.4863 16.517 41.2366 16.4262 40.8962 16.4262ZM44.0314 16.4262C43.6683 16.4262 43.3959 16.6077 43.2127 16.9482V16.4943H42.6681C42.6908 16.6758 42.6908 16.8801 42.6908 17.0843V19.9245H43.2354V17.8122C43.2354 17.5399 43.2808 17.2902 43.3716 17.1313C43.4851 16.9271 43.644 16.8363 43.8482 16.8363C44.0525 16.8363 44.2113 16.9271 44.2567 17.086C44.3021 17.1767 44.3021 17.3356 44.3021 17.5853V19.9261H44.8468V17.7668C44.8468 17.154 45.0511 16.8347 45.4596 16.8347C45.6638 16.8347 45.8 16.9255 45.8681 17.0843C45.9135 17.1978 45.9362 17.3567 45.9362 17.6063V19.9245H46.4809V17.5836C46.4809 17.1751 46.4128 16.9028 46.2993 16.7196C46.1631 16.5153 45.9589 16.4019 45.6411 16.4019C45.278 16.4019 44.983 16.5834 44.7771 16.9238C44.6896 16.6077 44.4399 16.4262 44.0314 16.4262ZM54.1876 16.4262C53.6656 16.4262 53.3008 16.6304 53.1419 17.0389C53.0285 17.3113 52.9831 17.7425 52.9831 18.3569C52.9831 18.9016 53.0512 19.289 53.1873 19.516C53.3689 19.8337 53.6866 19.9926 54.1649 19.9926C54.8927 19.9926 55.2785 19.6068 55.3239 18.8562H54.8019C54.7793 19.3555 54.575 19.6068 54.1892 19.6068C53.9168 19.6068 53.758 19.4933 53.6672 19.2663C53.5991 19.1075 53.5764 18.8578 53.5764 18.5158V18.2888H55.3709V18.1299C55.3709 17.5853 55.3256 17.1978 55.2121 16.9709C55.0046 16.6077 54.6642 16.4262 54.1876 16.4262ZM58.618 16.4262C58.323 16.4262 58.0733 16.4943 57.8901 16.6531C57.6859 16.812 57.5951 17.0389 57.5951 17.334C57.5951 17.6063 57.6859 17.8106 57.8674 17.9694C57.9582 18.0602 58.1625 18.1737 58.4802 18.3553C58.7072 18.4914 58.866 18.5822 58.9341 18.6503C59.0476 18.7638 59.093 18.9 59.093 19.1042C59.093 19.4673 58.9114 19.6262 58.571 19.6262C58.276 19.6262 58.0944 19.4446 58.0717 19.0815C58.0717 19.0134 58.0717 18.968 58.0717 18.9H57.527C57.5043 19.6505 57.8674 20.0137 58.5726 20.0137C59.3005 20.0137 59.6409 19.6732 59.6409 19.0134C59.6409 18.7638 59.5501 18.5368 59.3913 18.3553C59.2778 18.2418 59.0962 18.1283 58.8239 17.9694C58.5742 17.8333 58.4154 17.7198 58.3473 17.6744C58.2111 17.5609 58.143 17.4248 58.143 17.2886C58.143 17.1524 58.1884 17.0389 58.2792 16.9482C58.37 16.8574 58.4834 16.812 58.6196 16.812C58.9374 16.812 59.0962 17.0162 59.0962 17.4475H59.6409C59.6409 17.107 59.5501 16.8347 59.3913 16.6742C59.2308 16.517 58.9811 16.4262 58.618 16.4262ZM63.0711 16.4262C62.5718 16.4262 62.2298 16.6077 62.0482 16.9936C61.9348 17.2432 61.8667 17.6744 61.8667 18.2661C61.8667 18.8562 61.9348 19.289 62.0482 19.516C62.2071 19.8337 62.5475 19.9926 63.0484 19.9926C63.752 19.9926 64.1167 19.6068 64.1167 18.8562H63.5948C63.5948 19.0831 63.5494 19.2647 63.4813 19.3782C63.3905 19.537 63.2543 19.6051 63.0274 19.6051C62.7777 19.6051 62.6189 19.4917 62.5281 19.2874C62.46 19.0831 62.4146 18.7427 62.4146 18.2191C62.4146 17.7652 62.4373 17.4458 62.4827 17.2643C62.5735 16.9692 62.755 16.8104 63.0274 16.8104C63.3905 16.8104 63.5494 17.06 63.5494 17.5382H64.0714C64.0714 17.1524 64.0033 16.8801 63.8444 16.6969C63.7309 16.517 63.457 16.4262 63.0711 16.4262ZM69.2961 16.4262C68.7741 16.4262 68.4321 16.6304 68.2505 17.0389C68.1371 17.3113 68.069 17.7425 68.069 18.3569C68.069 18.9016 68.1371 19.289 68.2732 19.516C68.4548 19.8337 68.7725 19.9926 69.2507 19.9926C69.9786 19.9926 70.3644 19.6068 70.4098 18.8562H69.8878C69.8651 19.3555 69.6609 19.6068 69.2751 19.6068C69.0027 19.6068 68.8439 19.4933 68.7531 19.2663C68.685 19.1075 68.6623 18.8578 68.6623 18.5158V18.2888H70.4568V18.1299C70.4568 17.5853 70.4115 17.1978 70.298 16.9709C70.1148 16.6077 69.7744 16.4262 69.2961 16.4262ZM77.7712 16.4262C77.2492 16.4262 76.8845 16.6304 76.7256 17.0389C76.6121 17.3113 76.5667 17.7425 76.5667 18.3569C76.5667 18.9016 76.6348 19.289 76.771 19.516C76.9526 19.8337 77.2703 19.9926 77.7485 19.9926C78.4764 19.9926 78.8622 19.6068 78.9076 18.8562H78.3856C78.3629 19.3555 78.1587 19.6068 77.7728 19.6068C77.5005 19.6068 77.3416 19.4933 77.2508 19.2663C77.1828 19.1075 77.1601 18.8578 77.1601 18.5158V18.2888H78.9546V18.1299C78.9546 17.5853 78.9092 17.1978 78.7957 16.9709C78.5899 16.6077 78.2721 16.4262 77.7712 16.4262ZM72.6599 16.4262C72.2741 16.4262 71.979 16.6077 71.7959 16.9482V16.4943H71.2739C71.2966 16.6758 71.2966 16.8801 71.2966 17.1297V19.9472H71.8413V17.8122C71.8413 17.5399 71.9093 17.3356 72.0455 17.1767C72.1817 17.0179 72.3632 16.9271 72.6356 16.9271C72.6583 16.9271 72.7037 16.9271 72.7491 16.9498C72.728 16.6077 72.7053 16.4262 72.6599 16.4262ZM47.5297 16.4943V19.9472H48.0744V16.4943H47.5297ZM60.4579 16.4943V19.9472H61.0026V16.4943H60.4579ZM79.7716 16.4943V19.9472H80.3163V16.4943H79.7716ZM28.3311 16.812C28.6035 16.812 28.785 16.9482 28.8531 17.2205C28.8985 17.3567 28.9212 17.5836 28.9212 17.9241H27.6713C27.6713 17.7879 27.6713 17.629 27.694 17.4702C27.7621 17.0389 27.968 16.812 28.3311 16.812ZM34.6696 16.812C34.9419 16.812 35.1235 16.9482 35.1916 17.2205C35.237 17.3567 35.2597 17.5836 35.2597 17.9241H34.0098C34.0098 17.7879 34.0098 17.629 34.0325 17.4702C34.0795 17.0389 34.3065 16.812 34.6696 16.812ZM54.1649 16.812C54.4372 16.812 54.6188 16.9482 54.6868 17.2205C54.7322 17.3567 54.7549 17.5836 54.7549 17.9241H53.5051C53.5051 17.7879 53.5051 17.629 53.5278 17.4702C53.5958 17.0389 53.8017 16.812 54.1649 16.812ZM69.2734 16.812C69.5458 16.812 69.7274 16.9482 69.7954 17.2205C69.8408 17.3567 69.8635 17.5836 69.8635 17.9241H68.6137C68.6137 17.7879 68.6137 17.629 68.6364 17.4702C68.7061 17.0389 68.9103 16.812 69.2734 16.812ZM77.7712 16.812C78.0436 16.812 78.2251 16.9482 78.2932 17.2205C78.3386 17.3567 78.3613 17.5836 78.3613 17.9241H77.1114C77.1114 17.7879 77.1114 17.629 77.1341 17.4702C77.1811 17.0389 77.3854 16.812 77.7712 16.812ZM31.5571 16.8347C31.8294 16.8347 32.011 16.9936 32.1018 17.334C32.1472 17.5155 32.1699 17.7879 32.1699 18.1526C32.1699 18.7427 32.1018 19.1302 31.9883 19.3344C31.8748 19.516 31.7386 19.6068 31.5571 19.6068C31.3074 19.6068 31.1259 19.4933 31.0124 19.2663C30.9216 19.0848 30.8762 18.7443 30.8762 18.2434C30.8762 17.6533 30.9443 17.2659 31.0805 17.0843C31.194 16.9028 31.3528 16.8347 31.5571 16.8347Z" fill="white"/>
</svg>
